# xmcd
# Track frame offsets:
# 150
# 9772
# 21460
# 31202
# 43060
# 52310
# 64697
# 75512
# 86677
# 97640
# 109552
# 124022
# 134610
# 148122
# 161885
# 175692
# 188802
# 198975
# 208937
# 220115
# 231062
# 241870
# 254127
# 265655
#
# Disc length: 3724 seconds
# Revision: 0
# Processed by: cddbd v1.5PL3 Copyright (c) Steve Scherf et al.
# Submitted via: VisiTrax 2.9.9.202 - For more info visit www.synapsa.com
#
DISCID=500e8a18
DTITLE=Hank Locklin - Hank Locklin 1955-1967, Plus Irish Songs-Country Style
DYEAR=1999
DGENRE=Country
TTITLE0=Forty Nine, Fifty One
TTITLE1=Faith And Truth
TTITLE2=The Girls Get Prettier (Every Day)
TTITLE3=To Him
TTITLE4=Insurance
TTITLE5=I Feel A Cry Coming On
TTITLE6=The Best Part Of Loving You
TTITLE7=The Last Thing On My Mind
TTITLE8=Hasta Luego
TTITLE9=Wishing On A Star
TTITLE10=Country Hall Of Fame
TTITLE11=Evergreen
TTITLE12=The Old Bog Road
TTITLE13=Too-Ra-Lo-Ra-Loo-Ral
TTITLE14=Danny Dear
TTITLE15=If We Only Had Old Ireland Over Here
TTITLE16=I'll Take You Home Again, Kathleen
TTITLE17=My Wild Irish Rose
TTITLE18=Danny Boy
TTITLE19=When Irish Eyes Are Smiling
TTITLE20=A Little Bit Of Heaven
TTITLE21=Galway Bay
TTITLE22=Kevin Barry
TTITLE23=Forty Shades Of Green
EXTD=
EXTT0=
EXTT1=
EXTT2=
EXTT3=
EXTT4=
EXTT5=
EXTT6=
EXTT7=
EXTT8=
EXTT9=
EXTT10=
EXTT11=
EXTT12=
EXTT13=
EXTT14=
EXTT15=
EXTT16=
EXTT17=
EXTT18=
EXTT19=
EXTT20=
EXTT21=
EXTT22=
EXTT23=
PLAYORDER=
